<?xml version="1.0" encoding="UTF-8"?>
<!DOCTYPE svg PUBLIC "-//W3C//DTD SVG 1.1//EN" "http://www.w3.org/Graphics/SVG/1.1/DTD/svg11.dtd">
<!-- Creator: CorelDRAW 2020 (64-Bit) -->
<svg xmlns="http://www.w3.org/2000/svg" xml:space="preserve" width="20px" height="20px" version="1.1" style="shape-rendering:geometricPrecision; text-rendering:geometricPrecision; image-rendering:optimizeQuality; fill-rule:evenodd; clip-rule:evenodd"
viewBox="0 0 5.55 5.55"
 xmlns:xlink="http://www.w3.org/1999/xlink"
 xmlns:xodm="http://www.corel.com/coreldraw/odm/2003">
 <defs>
  <style type="text/css">
   <![CDATA[
    .fil0 {fill:#2AAAEC}
   ]]>
  </style>
 </defs>
 <g id="Слой_x0020_1">
  <metadata id="CorelCorpID_0Corel-Layer"/>
  <path class="fil0" d="M2.77 0c1.53,0 2.78,1.24 2.78,2.77 0,1.53 -1.25,2.78 -2.78,2.78 -1.53,0 -2.77,-1.25 -2.77,-2.78 0,-1.53 1.24,-2.77 2.77,-2.77zm-0.74 3.41l-0.07 0.92c0.09,0 0.13,-0.04 0.18,-0.09l0.44 -0.42 0.91 0.66c0.17,0.1 0.29,0.05 0.33,-0.15l0.6 -2.8 0 0c0.05,-0.24 -0.09,-0.34 -0.25,-0.28l-3.51 1.34c-0.24,0.1 -0.24,0.23 -0.04,0.29l0.89 0.28 2.09 -1.3c0.1,-0.07 0.19,-0.03 0.11,0.03l-1.68 1.52z"/>
 </g>
</svg>
