<?xml version="1.0" encoding="UTF-8"?>
<!DOCTYPE svg PUBLIC "-//W3C//DTD SVG 1.1//EN" "http://www.w3.org/Graphics/SVG/1.1/DTD/svg11.dtd">
<!-- Creator: CorelDRAW 2020 (64-Bit) -->
<svg xmlns="http://www.w3.org/2000/svg" xml:space="preserve" width="722px" height="227px" version="1.1" style="shape-rendering:geometricPrecision; text-rendering:geometricPrecision; image-rendering:optimizeQuality; fill-rule:evenodd; clip-rule:evenodd"
viewBox="0 0 571.01 179.66"
 xmlns:xlink="http://www.w3.org/1999/xlink"
 xmlns:xodm="http://www.corel.com/coreldraw/odm/2003">
 <defs>
  <style type="text/css">
   <![CDATA[
    .fil0 {fill:#FEFEFE;fill-rule:nonzero}
   ]]>
  </style>
 </defs>
 <g id="Слой_x0020_1">
  <metadata id="CorelCorpID_0Corel-Layer"/>
  <g id="_2041191871488">
   <g>
    <g>
     <polygon class="fil0" points="475.32,116.54 475.32,120.17 462.78,120.17 462.78,101.4 467,101.4 467,116.54 "/>
     <polygon class="fil0" points="493.96,101.4 498.19,101.4 498.19,120.17 493.96,120.17 "/>
     <path class="fil0" d="M531.05 120.17c-1.21,-2.15 -2.52,-4.27 -3.93,-6.36 -1.41,-2.1 -2.91,-4.08 -4.5,-5.94l0 12.3 -4.17 0 0 -18.77 3.44 0c0.6,0.59 1.26,1.32 1.98,2.19 0.72,0.87 1.46,1.79 2.21,2.78 0.75,0.98 1.49,2 2.23,3.06 0.75,1.06 1.44,2.07 2.09,3.05l0 -11.08 4.2 0 0 18.77 -3.55 0z"/>
     <path class="fil0" d="M565.93 120.17c-0.38,-0.61 -0.82,-1.27 -1.34,-1.98 -0.52,-0.71 -1.07,-1.42 -1.67,-2.15 -0.6,-0.71 -1.22,-1.41 -1.87,-2.07 -0.66,-0.66 -1.31,-1.24 -1.96,-1.75l0 7.95 -4.22 0 0 -18.77 4.22 0 0 7.05c1.09,-1.14 2.19,-2.33 3.31,-3.58 1.12,-1.24 2.16,-2.4 3.11,-3.47l5.02 0c-1.28,1.52 -2.57,2.98 -3.86,4.39 -1.29,1.4 -2.66,2.81 -4.08,4.24 1.5,1.25 2.95,2.73 4.34,4.45 1.4,1.72 2.74,3.62 4.03,5.69l-5.03 0z"/>
     <polygon class="fil0" points="475.32,146.1 475.32,149.73 462.78,149.73 462.78,130.95 467,130.95 467,146.1 "/>
     <polygon class="fil0" points="483.69,149.73 483.69,130.95 496.37,130.95 496.37,134.5 487.92,134.5 487.92,138.19 495.42,138.19 495.42,141.65 487.92,141.65 487.92,146.18 497,146.18 497,149.73 "/>
     <path class="fil0" d="M518.37 149.73c-0.21,-0.65 -0.43,-1.32 -0.67,-2.01 -0.24,-0.69 -0.48,-1.37 -0.72,-2.06l-7.34 0c-0.23,0.69 -0.47,1.38 -0.71,2.07 -0.24,0.68 -0.46,1.35 -0.67,2l-4.38 0c0.7,-2.02 1.37,-3.89 2.01,-5.61 0.63,-1.72 1.25,-3.33 1.86,-4.85 0.61,-1.52 1.2,-2.96 1.79,-4.32 0.59,-1.36 1.2,-2.7 1.84,-4l4.01 0c0.61,1.3 1.22,2.64 1.82,4 0.6,1.36 1.2,2.8 1.81,4.32 0.61,1.52 1.23,3.13 1.86,4.85 0.64,1.72 1.31,3.59 2.02,5.61l-4.53 0zm-5.08 -14.52l0 0c-0.09,0.27 -0.23,0.64 -0.41,1.11 -0.18,0.47 -0.39,1.01 -0.62,1.63 -0.24,0.61 -0.49,1.29 -0.78,2.03 -0.29,0.74 -0.58,1.51 -0.87,2.32l5.36 0c-0.28,-0.81 -0.56,-1.59 -0.83,-2.33 -0.27,-0.74 -0.53,-1.42 -0.77,-2.04 -0.24,-0.61 -0.45,-1.15 -0.64,-1.62 -0.18,-0.47 -0.33,-0.84 -0.44,-1.1z"/>
     <path class="fil0" d="M536.47 130.74c2.82,0 4.97,0.5 6.47,1.5 1.5,1 2.25,2.56 2.25,4.68 0,1.31 -0.3,2.38 -0.91,3.2 -0.6,0.83 -1.47,1.47 -2.61,1.94 0.38,0.47 0.78,1.01 1.19,1.61 0.42,0.61 0.83,1.24 1.24,1.9 0.4,0.66 0.8,1.34 1.18,2.06 0.37,0.71 0.73,1.41 1.05,2.1l-4.72 0c-0.35,-0.62 -0.7,-1.24 -1.05,-1.87 -0.35,-0.63 -0.72,-1.24 -1.09,-1.84 -0.37,-0.6 -0.74,-1.16 -1.1,-1.7 -0.36,-0.53 -0.73,-1.01 -1.09,-1.45l-2.08 0 0 6.86 -4.23 0 0 -18.5c0.92,-0.19 1.87,-0.31 2.86,-0.38 0.98,-0.08 1.86,-0.11 2.64,-0.11zm0.24 3.6l0 0c-0.3,0 -0.58,0.01 -0.82,0.03 -0.25,0.01 -0.48,0.03 -0.69,0.05l0 5.09 1.19 0c1.59,0 2.73,-0.19 3.41,-0.59 0.69,-0.4 1.03,-1.08 1.03,-2.03 0,-0.93 -0.35,-1.58 -1.04,-1.97 -0.7,-0.38 -1.72,-0.58 -3.08,-0.58z"/>
     <path class="fil0" d="M567.3 149.73c-1.21,-2.15 -2.52,-4.27 -3.93,-6.37 -1.41,-2.09 -2.91,-4.07 -4.49,-5.93l0 12.3 -4.18 0 0 -18.78 3.44 0c0.6,0.6 1.26,1.33 1.98,2.2 0.72,0.86 1.46,1.79 2.21,2.78 0.75,0.98 1.49,2 2.23,3.06 0.74,1.05 1.44,2.07 2.09,3.04l0 -11.08 4.2 0 0 18.78 -3.55 0z"/>
     <path class="fil0" d="M467.9 176.06c0.59,0 1.08,-0.05 1.47,-0.15 0.39,-0.1 0.7,-0.23 0.94,-0.41 0.23,-0.17 0.4,-0.37 0.49,-0.6 0.09,-0.24 0.13,-0.5 0.13,-0.79 0,-0.61 -0.29,-1.12 -0.87,-1.53 -0.57,-0.41 -1.57,-0.85 -2.98,-1.32 -0.61,-0.21 -1.22,-0.46 -1.84,-0.74 -0.61,-0.28 -1.16,-0.63 -1.65,-1.06 -0.49,-0.42 -0.89,-0.94 -1.19,-1.54 -0.31,-0.61 -0.46,-1.34 -0.46,-2.21 0,-0.87 0.16,-1.64 0.48,-2.34 0.33,-0.7 0.79,-1.29 1.39,-1.78 0.59,-0.48 1.31,-0.86 2.16,-1.12 0.85,-0.26 1.81,-0.39 2.88,-0.39 1.26,0 2.35,0.13 3.27,0.4 0.92,0.27 1.68,0.57 2.28,0.9l-1.22 3.33c-0.52,-0.27 -1.11,-0.51 -1.75,-0.72 -0.64,-0.21 -1.41,-0.31 -2.31,-0.31 -1.02,0 -1.74,0.14 -2.18,0.42 -0.45,0.28 -0.67,0.71 -0.67,1.29 0,0.34 0.08,0.63 0.25,0.86 0.16,0.24 0.39,0.45 0.69,0.64 0.3,0.19 0.64,0.36 1.03,0.52 0.38,0.15 0.81,0.31 1.28,0.47 0.98,0.36 1.83,0.72 2.55,1.07 0.72,0.35 1.32,0.76 1.8,1.23 0.48,0.47 0.84,1.02 1.07,1.66 0.24,0.63 0.35,1.39 0.35,2.3 0,1.75 -0.61,3.11 -1.84,4.07 -1.23,0.97 -3.08,1.45 -5.55,1.45 -0.83,0 -1.58,-0.05 -2.25,-0.14 -0.67,-0.11 -1.26,-0.23 -1.78,-0.37 -0.51,-0.15 -0.95,-0.3 -1.32,-0.46 -0.37,-0.16 -0.69,-0.32 -0.94,-0.46l1.19 -3.36c0.56,0.3 1.25,0.58 2.08,0.83 0.82,0.24 1.82,0.36 3.02,0.36z"/>
     <polygon class="fil0" points="495.29,160.51 499.52,160.51 499.52,179.28 495.29,179.28 495.29,171.32 488.19,171.32 488.19,179.28 483.96,179.28 483.96,160.51 488.19,160.51 488.19,167.69 495.29,167.69 "/>
     <path class="fil0" d="M521.86 179.28c-0.2,-0.65 -0.43,-1.32 -0.67,-2.01 -0.24,-0.68 -0.48,-1.37 -0.72,-2.05l-7.33 0c-0.24,0.69 -0.48,1.37 -0.71,2.06 -0.24,0.69 -0.46,1.36 -0.67,2l-4.39 0c0.71,-2.02 1.38,-3.89 2.01,-5.61 0.64,-1.71 1.26,-3.33 1.87,-4.84 0.6,-1.52 1.2,-2.96 1.79,-4.33 0.59,-1.36 1.2,-2.69 1.83,-3.99l4.01 0c0.61,1.3 1.22,2.63 1.82,3.99 0.6,1.37 1.21,2.81 1.81,4.33 0.61,1.51 1.23,3.13 1.87,4.84 0.63,1.72 1.31,3.59 2.01,5.61l-4.53 0zm-5.07 -14.52l0 0c-0.1,0.28 -0.23,0.65 -0.42,1.11 -0.18,0.47 -0.39,1.02 -0.62,1.63 -0.23,0.62 -0.49,1.3 -0.78,2.03 -0.28,0.74 -0.57,1.52 -0.87,2.33l5.37 0c-0.29,-0.81 -0.57,-1.59 -0.84,-2.33 -0.27,-0.74 -0.52,-1.42 -0.76,-2.04 -0.25,-0.61 -0.46,-1.15 -0.64,-1.62 -0.18,-0.47 -0.33,-0.84 -0.44,-1.11z"/>
     <path class="fil0" d="M539.72 160.29c2.82,0 4.98,0.5 6.48,1.51 1.5,1 2.25,2.56 2.25,4.67 0,1.32 -0.31,2.39 -0.91,3.21 -0.61,0.82 -1.48,1.47 -2.62,1.93 0.38,0.48 0.78,1.01 1.2,1.62 0.41,0.6 0.82,1.24 1.23,1.89 0.4,0.66 0.8,1.35 1.18,2.06 0.38,0.72 0.73,1.42 1.05,2.1l-4.72 0c-0.35,-0.61 -0.7,-1.23 -1.05,-1.86 -0.35,-0.64 -0.72,-1.25 -1.09,-1.85 -0.37,-0.59 -0.73,-1.16 -1.1,-1.69 -0.36,-0.54 -0.73,-1.02 -1.09,-1.45l-2.08 0 0 6.85 -4.23 0 0 -18.5c0.92,-0.18 1.87,-0.31 2.86,-0.38 0.98,-0.07 1.87,-0.11 2.64,-0.11zm0.25 3.61l0 0c-0.31,0 -0.59,0.01 -0.83,0.02 -0.25,0.02 -0.48,0.04 -0.69,0.06l0 5.09 1.19 0c1.59,0 2.73,-0.2 3.41,-0.59 0.69,-0.4 1.03,-1.08 1.03,-2.04 0,-0.92 -0.34,-1.57 -1.04,-1.96 -0.7,-0.39 -1.72,-0.58 -3.07,-0.58z"/>
     <polygon class="fil0" points="557.71,179.28 557.71,160.51 570.39,160.51 570.39,164.06 561.94,164.06 561.94,167.74 569.44,167.74 569.44,171.21 561.94,171.21 561.94,175.73 571.01,175.73 571.01,179.28 "/>
    </g>
    <path class="fil0" d="M449.94 0c0,8.75 0,6.39 0,16.15l0 163.51 -16.15 0 0 -163.51 -7.36 0c-20.41,0 -37.83,7.16 -52.24,21.5 -14.31,14.41 -21.5,31.71 -21.5,52.12l0 89.89 -23.64 0c-24.75,0 -45.9,-8.79 -63.38,-26.36 -17.6,-17.57 -26.38,-38.75 -26.38,-63.53l0 -73.62 -36 0c-20.41,0 -37.83,7.16 -52.23,21.5 -12.43,12.49 -19.44,27.18 -21.12,44.1l72.23 0 0 16.15 -72.2 0c1.65,16.95 8.69,31.68 21.09,44.13 14.4,14.32 31.82,21.48 52.23,21.48l23.54 0 0 16.15 -0.02 0c-15.77,0 -3.2,0 -23.64,0l-113.28 0c-24.79,0 -45.97,-8.79 -63.54,-26.36 -17.57,-17.57 -26.35,-38.71 -26.35,-63.41 0,-24.76 8.78,-45.94 26.35,-63.54 17.51,-17.56 38.63,-26.35 63.42,-26.35 20.41,0 7.87,0 23.63,0l0 16.15 -23.51 0c-20.44,0 -37.83,7.16 -52.24,21.5 -14.34,14.41 -21.5,31.83 -21.5,52.24 0,20.35 7.16,37.74 21.5,52.14 14.41,14.32 31.8,21.48 52.24,21.48l61.85 0c-4.17,-2.99 -8.17,-6.39 -11.98,-10.21 -17.57,-17.57 -26.36,-38.75 -26.36,-63.53 0,-24.7 8.79,-45.82 26.36,-63.42 17.57,-17.56 38.74,-26.35 63.53,-26.35l52.15 0 0 89.77c0,20.44 7.15,37.86 21.5,52.26 14.4,14.32 31.71,21.48 52.11,21.48l7.49 0 0 -73.74c0,-24.79 8.78,-45.91 26.38,-63.42 17.57,-17.56 38.75,-26.35 63.51,-26.35l7.36 0c13.25,0 0.86,0 16.15,0z"/>
    <polygon class="fil0" points="433.79,77.26 433.79,92.4 449.94,92.4 449.94,77.26 "/>
    <path class="fil0" d="M336.55 160.14c0,-24.77 8.79,-45.91 26.36,-63.41 17.58,-17.57 38.75,-26.36 63.53,-26.36 24.7,0 127.08,0 144.57,0 0,8.75 0,6.39 0,16.15 -13.9,0 -124.23,0 -144.57,0 -20.43,0 -37.84,7.17 -52.25,21.5 -14.33,14.4 -21.49,31.7 -21.49,52.13 0,1.7 0,18.47 0,19.51 -2.39,0 -12.42,0 -16.15,0 0,-1.19 0,-17.48 0,-19.52z"/>
   </g>
  </g>
 </g>
</svg>
